<svg xmlns="http://www.w3.org/2000/svg" width="232" height="164" viewBox="0 0 232 164">
  <defs>
    <style>
      .cls-1 {
        fill: #b9b9b9;
        fill-rule: evenodd;
      }
    </style>
  </defs>
  <path class="cls-1" d="M166.426,161.328v-3.947h64v3.947h-64Zm15.754-16.772h25.6V148.5h-25.6v-3.946Zm-2.954-13.813h8.861v3.947h-8.861v-3.947Zm0-91.753a12.687,12.687,0,0,0-3.938,6.906,12.565,12.565,0,0,0-9.846-9.866,13.361,13.361,0,0,0,9.846-8.879,13.357,13.357,0,0,0,9.845,8.879A12.591,12.591,0,0,0,179.226,38.99Zm-28.553,65.115c0.5,0.886,1.9.915,2.954,0.987,5.865,0.4,13.246,6.85,13.784,13.812,0.288,3.728-1.276,8.993-4.923,10.853-0.324.165-3.049,0.695-3.938,1.973-0.822,1.18-.722,2.9,0,4.933a34.629,34.629,0,0,0,1.969,2.96c1.695,2.282,3.159,3.485,2.954,4.933-0.186,1.309-2.461,3.246-6.893,4.932-1.041.4-2.365,0.8-2.953,0.987a92.782,92.782,0,0,0-11.815,4.933,124.475,124.475,0,0,1-18.708,6.906,15.246,15.246,0,0,1-5.907.987c-1.976-.241-3.925-0.569-5.877-0.987a92.369,92.369,0,0,1-18.707-6.906A92.813,92.813,0,0,0,80.8,150.475c-0.589-.187-1.913-0.59-2.954-0.987-4.432-1.686-6.706-3.623-6.892-4.932-0.205-1.448,1.258-2.651,2.954-4.933a34.726,34.726,0,0,0,1.969-2.96c1.167-2.015,1.631-3.749.954-4.933-0.715-1.249-3.456-1.722-3.938-1.973-3.693-1.924-5.084-7.255-4.923-10.853,0.293-6.521,5.922-12.794,10.831-13.812a2.7,2.7,0,0,0,1.969-.987c1.061-1.888-2.963-5.3-5.907-9.866-2.821-4.375-5.021-10.982-4.923-20.718,0.136-13.539,6.856-25.1,14.769-32.558a47.664,47.664,0,0,1,30.523-12.826,45.766,45.766,0,0,1,31.507,12.826c9.539,9.264,13.44,21.75,13.784,32.558,0.306,9.612-2.144,17.76-3.939,20.718C153.684,99.016,149.649,102.293,150.673,104.105Zm12.8,14.8a9.846,9.846,0,1,0-9.846,9.866A9.9,9.9,0,0,0,163.473,118.9ZM76.829,142.582c0.162,2.068,4.016,3.3,5.908,3.947,4.193,1.431,6.654,3.453,10.83,4.933,9.48,3.358,15.578,7.827,23.63,7.892,7.418,0.061,14.079-4.3,23.63-7.892,4.194-1.58,6.638-3.349,10.83-4.933,1.334-.5,4.244-1.564,4.923-3.947,1.011-3.542-3.4-7.63-4.923-8.879a24.68,24.68,0,0,0-2.953-1.973c-5.585-3.463-8.149-7.085-8.862-9.866-0.658-2.571.579-6.671-.984-7.893-1.639-1.281-4.887.634-7.877,1.973A35.723,35.723,0,0,1,117.2,118.9c-7.14.1-12.982-1.388-15.754-2.96-0.813-.461-3.284-1.936-4.922-0.986-1.7.982-1.179,3.8-1.969,6.906-0.961,3.777-3.65,7.046-7.877,9.866a8.656,8.656,0,0,0-3.938,1.973c-1.739,1.573-1.889,3.427-2.954,4.933C79.191,139.473,76.727,141.282,76.829,142.582ZM71.906,118.9a9.846,9.846,0,1,0,9.846-9.866A9.9,9.9,0,0,0,71.906,118.9ZM117.2,32.084C94.113,31,73.867,49.941,73.875,73.521c0.008,23.069,19.4,41.981,42.337,41.437A41.47,41.47,0,0,0,117.2,32.084Zm-0.985,69.062A27.137,27.137,0,1,1,142.8,73.521,27.31,27.31,0,0,1,116.212,101.146Zm0-50.316a22.751,22.751,0,1,0,21.661,23.678C138.321,62.494,128.809,51.76,116.212,50.83Zm8.862,19.732a20.253,20.253,0,0,0-2.954,2.96,19.309,19.309,0,0,0-2.954,4.933c-1.427,3.558-.735,9.8-2.954,10.853a2.4,2.4,0,0,1-1.969,0c-2.219-1.039-1.711-7.518-2.954-10.853a18.732,18.732,0,0,0-6.892-8.879,4.241,4.241,0,0,1-1.969-2.96c-0.074-1.061,1.2-2.861,3.938-4.933a23.141,23.141,0,0,1,4.923-2.96,14.046,14.046,0,0,1,8.862,0,29.385,29.385,0,0,1,4.923,2.96c2.772,2.066,4.009,4.052,3.938,4.933C128.868,68.411,126.978,69.818,125.074,70.561Zm0-58.209a8.771,8.771,0,0,0-1.97-3.946,9.5,9.5,0,0,0-13.784,0,8.759,8.759,0,0,0-1.969,3.946v9.866h-3.938V9.393a14.325,14.325,0,0,1,25.6,0V22.218h-3.938V12.353ZM65.014,32.084a5.756,5.756,0,0,0-1.969-2.96,5.6,5.6,0,0,0-1.969-.987,5.6,5.6,0,0,0,1.969-.987,5.756,5.756,0,0,0,1.969-2.96,5.755,5.755,0,0,0,1.969,2.96,5.6,5.6,0,0,0,1.969.987,5.6,5.6,0,0,0-1.969.987A5.755,5.755,0,0,0,65.014,32.084ZM53.2,97.2a13.944,13.944,0,0,0-2.954,4.933,13.889,13.889,0,0,0-6.892-7.893,9.1,9.1,0,0,0,3.938-1.973,9.214,9.214,0,0,0,2.954-4.933A9.215,9.215,0,0,0,53.2,92.266a9.1,9.1,0,0,0,3.938,1.973A13.887,13.887,0,0,0,53.2,97.2Zm-7.877,33.544h8.861v3.947H45.322v-3.947ZM52.214,148.5H25.63v-3.946H52.214V148.5Zm15.753,12.826H2v-3.947H67.967v3.947Z"/>
</svg>
